{"title":"Stuart Little 3 (2005)DVDRip[Hindi(224Kbps)-Eng]DD5.1-DGrea8","uid":9111399,"size":1035012449,"categoryP":"video","categoryS":"hd___movies","magnet":"?xt=urn:btih:496f33afbef5f883754373e3fcdaf58b18b68b2e&amp;dn=Stuart+Little+3+%282005%29DVDRip%5BHindi%28224Kbps%29-Eng%5DDD5.1-DGrea8&amp;tr=udp%3A%2F%2Ftracker.openbittorrent.com%3A80&amp;tr=udp%3A%2F%2Fopen.demonii.com%3A1337&amp;tr=udp%3A%2F%2Ftracker.coppersurfer.tk%3A6969&amp;tr=udp%3A%2F%2Fexodus.desync.com%3A6969","seeders":11,"leechers":3,"uploader":"DGrea8","files":23,"time":1382951968,"description":"   Stuart Little 3 Call Of The Wild(2005)DVDRip[Hindi(224Kbps)-Eng]DD5.1-DGrea8\n\nSummary:-\n\nStuart Little's back in an all-new, adventure! School's out for the summer and the Little Family is spending their big vacation at a beautiful lakeside cabin near Lake Garland. But meanwhile, there is something lurking in the forest who could spoil all the fun: the Beast; a mean and isolated forest terror who rules the local animals with an iron paw. When Snowbell is taken prisoner, a Little bravery goes a long way as Stuart, along with his new skunk friend, named, Reeko, who heroically rescues Snowbell, frees the other woodland creatures and outwits the wily Beast.\n\nCast Info:. \n\nCharles Adler\t ...\tBeaver (voice) (as Charlie Adler)\nWayne Brady\t ...\tReeko (voice)\nGeena Davis\t ...\tMrs. Eleanor Little (voice)\nMichael J. Fox\t ...\tStuart Little (voice)\nTom Kenny\t ...\tForest Animal (voice)\nHugh Laurie\t ...\tMr. Frederick Little (voice)\nPeter MacNicol\t ...\tTroopmaster (voice)\nVirginia Madsen\t ...\tThe Beast (voice)\nSophia Paden\t ...\tBunny (voice)\nCorey Padnos\t ...\tGeorge Little (voice)\nRino Romano\t ...\tMonty (voice)\nKevin Schon\t ...\tSnowbell (voice)\nKath Soucie\t ...\tForest Animal (voice)\nTara Strong\t ...\tBrooke (voice)\n\n\n\nGeneral Info:. \n\nDirector:Audu Paden\nWriters:Bill Motz, Bob Roth\nStars: Charles Adler, Wayne Brady, Geena Davis \nRelease Date:21 February 2006 (USA)\nGenres: Animation | Comedy | Family \n\n\nVideo Info:. \n\n\nVideo\nID : 1\nDuration : 1h 12mn\nBit rate : 1 536 Kbps\nWidth : 704 pixels\nHeight : 384 pixels\nDisplay aspect ratio : 16:9\nFrame rate : 25.000 fps\nColor space : YUV\nChroma subsampling : 4:2:0\nBit depth : 8 bits\nScan type : Progressive\nCompression mode : Lossy\nBits/(Pixel*Frame) : 0.227\nStream size : 793 MiB (81%)\n\n\n\nAudio Info:. \n\nAudio #1\nID : 2\nFormat : MPEG Audio\nFormat version : Version 1\nFormat profile : Layer 3\nMode : Joint stereo\nMuxing mode : Header stripping\nCodec ID : A_MPEG/L3\nCodec ID/Hint : MP3\nDuration : 1h 12mn\nBit rate mode : Constant\nBit rate : 96.0 Kbps\nChannel(s) : 2 channels\nSampling rate : 32.0 KHz\nCompression mode : Lossy\nDelay relative to video : 8ms\nStream size : 49.6 MiB (5%)\nWriting library : LAME3.98.4\nLanguage : English\n\nAudio #2\nID : 3\nFormat : AC-3\nFormat/Info : Audio Coding 3\nMode extension : CM (complete main)\nMuxing mode : Header stripping\nCodec ID : A_AC3\nDuration : 1h 12mn\nBit rate mode : Constant\nBit rate : 224 Kbps\nChannel(s) : 6 channels\nChannel positions : Front: L C R, Side: L R, LFE\nSampling rate : 48.0 KHz\nBit depth : 16 bits\nCompression mode : Lossy\nStream size : 116 MiB (12%)\nLanguage : Hindi\nSubtitle : English\n   \n\n\nNote:-- Check The Torrent\n\n\nCheck The Screen Shoots And Sample Video In This Torrent\t","torrent":{"xt":"urn:btih:496f33afbef5f883754373e3fcdaf58b18b68b2e","amp;dn":"Stuart+Little+3+%282005%29DVDRip%5BHindi%28224Kbps%29-Eng%5DDD5.1-DGrea8","amp;tr":["udp%3A%2F%2Ftracker.openbittorrent.com%3A80","udp%3A%2F%2Fopen.demonii.com%3A1337","udp%3A%2F%2Ftracker.coppersurfer.tk%3A6969","udp%3A%2F%2Fexodus.desync.com%3A6969"],"infoHash":"496f33afbef5f883754373e3fcdaf58b18b68b2e","infoHashBuffer":{"type":"Buffer","data":[73,111,51,175,190,245,248,131,117,67,115,227,252,218,245,139,24,182,139,46]},"announce":[],"urlList":[]}}